<svg width="30" height="30" viewBox="0 0 30 30" fill="none" xmlns="http://www.w3.org/2000/svg">
<mask id="mask0_329_218" style="mask-type:alpha" maskUnits="userSpaceOnUse" x="0" y="0" width="30" height="30">
<rect width="30" height="30" fill="#C4C4C4"/>
</mask>
<g mask="url(#mask0_329_218)">
<path d="M22.85 1H6.69286C5.20561 1 4 2.20561 4 3.69286V27.923C4 29.3087 5.50295 30.1715 6.69959 29.4736L14.7714 24.7645L22.8444 29.473C24.0393 30.1221 25.5429 29.3087 25.5429 27.923V3.69286C25.5429 2.20561 24.3367 1 22.85 1ZM22.85 26.3577L14.7714 21.6452L6.69286 26.3577V4.02946C6.69286 3.8404 6.8404 3.69286 6.97897 3.69286H22.4629C22.7041 3.69286 22.85 3.8404 22.85 4.02946V26.3577Z" fill="#88A3B3"/>
</g>
</svg>
