<svg width="30" height="30" viewBox="0 0 30 30" fill="none" xmlns="http://www.w3.org/2000/svg">
<mask id="mask0_329_219" style="mask-type:alpha" maskUnits="userSpaceOnUse" x="0" y="0" width="30" height="30">
<rect width="30" height="30" fill="#C4C4C4"/>
</mask>
<g mask="url(#mask0_329_219)">
<path d="M18.0918 18.2188H12.7653C7.37219 18.2188 3 22.682 3 28.1875C3 29.1883 3.7951 30 4.77551 30H26.0816C27.062 30 27.8571 29.1883 27.8571 28.1875C27.8571 22.682 23.4849 18.2188 18.0918 18.2188ZM5.7182 27.2812C6.15652 23.7072 9.1477 20.9375 12.7653 20.9375H18.0918C21.7072 20.9375 24.7001 23.7101 25.1384 27.2812H5.7182ZM15.4286 15.5C19.3508 15.5 22.5306 12.2539 22.5306 8.25C22.5306 4.24607 19.3508 1 15.4286 1C11.5064 1 8.32653 4.24607 8.32653 8.25C8.32653 12.2545 11.5058 15.5 15.4286 15.5ZM15.4286 3.71875C17.876 3.71875 19.8673 5.75158 19.8673 8.25C19.8673 10.7484 17.876 12.7812 15.4286 12.7812C12.9811 12.7812 10.9898 10.7479 10.9898 8.25C10.9898 5.75158 12.9817 3.71875 15.4286 3.71875Z" fill="#88A3B3"/>
</g>
</svg>
