<svg width="23" height="23" viewBox="0 0 23 23" fill="none" xmlns="http://www.w3.org/2000/svg">
<path fill-rule="evenodd" clip-rule="evenodd" d="M12.3527 0.0541309C14.9484 0.309895 17.3696 1.45889 19.1907 3.29921C21.1748 5.28515 22.3478 7.92102 22.4862 10.7044C22.6246 13.4878 21.7187 16.224 19.9411 18.3915C18.3062 20.3938 16.0119 21.7696 13.4558 22.2803C10.8997 22.7911 8.24272 22.4047 5.94532 21.1881C3.64299 19.9452 1.84565 17.9585 0.855941 15.5627C-0.13819 13.1545 -0.27051 10.4846 0.480763 7.99244C1.23042 5.51 2.82637 3.35842 4.99922 1.90088C7.15379 0.452591 9.75743 -0.201283 12.3527 0.0541309V0.0541309ZM13.1226 20.706C15.3131 20.2682 17.2801 19.0917 18.6851 17.3789C20.2064 15.516 20.9803 13.1675 20.8601 10.7793C20.7398 8.39113 19.7336 6.12965 18.0326 4.4243C16.4746 2.85723 14.4072 1.87954 12.1917 1.66213C9.9763 1.44472 7.75379 2.00142 5.91269 3.23492C4.52688 4.17581 3.4078 5.44974 2.66149 6.93603C1.91517 8.42231 1.56633 10.0717 1.64801 11.728C1.72969 13.3843 2.23918 14.9927 3.12823 16.4007C4.01728 17.8086 5.25643 18.9697 6.7283 19.7737C8.68302 20.8132 10.9462 21.1431 13.1226 20.706ZM10.4067 8.04066H12.4457V6.43339H10.4067V8.04066ZM12.4457 9.64793V16.077H10.4067V9.64793H12.4457Z" fill="#8B8B8B"/>
</svg>
