<svg width="22" height="23" viewBox="0 0 22 23" fill="none" xmlns="http://www.w3.org/2000/svg">
<path d="M13.0845 0C13.2532 5.36113e-06 13.4176 0.0540062 13.554 0.154225C13.6903 0.254445 13.7916 0.395711 13.8433 0.557679L14.7201 3.30429C15.0883 3.48589 15.4406 3.69 15.777 3.91982L18.5763 3.31232C18.7413 3.2768 18.9133 3.295 19.0674 3.36432C19.2215 3.43364 19.3499 3.55049 19.4339 3.69804L21.6434 7.55357C21.7277 7.70104 21.7635 7.87171 21.7454 8.04097C21.7274 8.21023 21.6565 8.36934 21.5429 8.49536L19.622 10.6329C19.65 11.0427 19.65 11.4541 19.622 11.8639L21.5429 14.0046C21.6565 14.1307 21.7274 14.2898 21.7454 14.459C21.7635 14.6283 21.7277 14.799 21.6434 14.9464L19.4339 18.8036C19.3496 18.9508 19.2212 19.0673 19.0671 19.1364C18.913 19.2054 18.7411 19.2233 18.5763 19.1877L15.777 18.5802C15.4422 18.8084 15.0883 19.0141 14.7216 19.1957L13.8433 21.9423C13.7916 22.1043 13.6903 22.2456 13.554 22.3458C13.4176 22.446 13.2532 22.5 13.0845 22.5H8.66553C8.49678 22.5 8.33238 22.446 8.19602 22.3458C8.05966 22.2456 7.95836 22.1043 7.90672 21.9423L7.03154 19.1973C6.66429 19.0163 6.31005 18.8095 5.97144 18.5786L3.17374 19.1877C3.00869 19.2232 2.83672 19.205 2.68259 19.1357C2.52846 19.0664 2.40013 18.9495 2.31609 18.802L0.106625 14.9464C0.0222543 14.799 -0.0134823 14.6283 0.00456758 14.459C0.0226175 14.2898 0.0935212 14.1307 0.207055 14.0046L2.12799 11.8639C2.10016 11.4551 2.10016 11.0449 2.12799 10.6361L0.207055 8.49536C0.0935212 8.36934 0.0226175 8.21023 0.00456758 8.04097C-0.0134823 7.87171 0.0222543 7.70104 0.106625 7.55357L2.31609 3.69643C2.40037 3.54917 2.52879 3.43266 2.6829 3.36364C2.83701 3.29462 3.00886 3.27665 3.17374 3.31232L5.97144 3.92143C6.3094 3.69161 6.6633 3.48429 7.03154 3.30268L7.90832 0.557679C7.95979 0.396232 8.0606 0.255341 8.19632 0.15517C8.33205 0.0549987 8.49573 0.000684108 8.66394 0H13.0829H13.0845ZM12.501 1.60714H9.24898L8.34352 4.44696L7.73296 4.7475C7.43281 4.89558 7.14307 5.06419 6.86575 5.25214L6.30143 5.63786L3.40648 5.00786L1.78047 7.84929L3.76516 10.0639L3.71734 10.7454C3.69443 11.0814 3.69443 11.4186 3.71734 11.7546L3.76516 12.4361L1.77728 14.6507L3.40489 17.4921L6.29984 16.8637L6.86416 17.2479C7.14147 17.4358 7.43122 17.6044 7.73137 17.7525L8.34192 18.053L9.24898 20.8929H12.5042L13.4129 18.0514L14.0218 17.7525C14.3216 17.6048 14.6109 17.4361 14.8874 17.2479L15.4502 16.8637L18.3467 17.4921L19.9727 14.6507L17.9864 12.4361L18.0343 11.7546C18.0572 11.4181 18.0572 11.0803 18.0343 10.7437L17.9864 10.0623L19.9743 7.84929L18.3467 5.00786L15.4502 5.63464L14.8874 5.25214C14.6109 5.06381 14.3217 4.89518 14.0218 4.7475L13.4129 4.44857L12.5026 1.60714H12.501ZM10.875 6.42857C12.1434 6.42857 13.3598 6.93654 14.2567 7.84074C15.1535 8.74493 15.6574 9.97128 15.6574 11.25C15.6574 12.5287 15.1535 13.7551 14.2567 14.6593C13.3598 15.5635 12.1434 16.0714 10.875 16.0714C9.60663 16.0714 8.39021 15.5635 7.49333 14.6593C6.59646 13.7551 6.0926 12.5287 6.0926 11.25C6.0926 9.97128 6.59646 8.74493 7.49333 7.84074C8.39021 6.93654 9.60663 6.42857 10.875 6.42857V6.42857ZM10.875 8.03571C10.0294 8.03571 9.21847 8.37436 8.62055 8.97716C8.02264 9.57995 7.68673 10.3975 7.68673 11.25C7.68673 12.1025 8.02264 12.92 8.62055 13.5228C9.21847 14.1256 10.0294 14.4643 10.875 14.4643C11.7206 14.4643 12.5315 14.1256 13.1294 13.5228C13.7274 12.92 14.0633 12.1025 14.0633 11.25C14.0633 10.3975 13.7274 9.57995 13.1294 8.97716C12.5315 8.37436 11.7206 8.03571 10.875 8.03571V8.03571Z" fill="#8B8B8B"/>
</svg>
