<svg width="30" height="30" viewBox="0 0 30 30" fill="none" xmlns="http://www.w3.org/2000/svg">
<mask id="mask0_329_217" style="mask-type:alpha" maskUnits="userSpaceOnUse" x="0" y="0" width="30" height="30">
<rect width="30" height="30" fill="#C4C4C4"/>
</mask>
<g mask="url(#mask0_329_217)">
<path d="M13.4125 7.35C13.4125 6.94944 13.7388 6.625 14.1375 6.625H14.8625C15.2613 6.625 15.5875 6.94944 15.5875 7.35V8.4375H16.675C17.0738 8.4375 17.4 8.76375 17.4 9.1625V9.8875C17.4 10.2863 17.0738 10.6125 16.675 10.6125H15.5875V11.7C15.5875 12.0988 15.2613 12.425 14.8625 12.425H14.1375C13.7388 12.425 13.4125 12.0988 13.4125 11.7V10.6125H12.325C11.9263 10.6125 11.6 10.2863 11.6 9.8875V9.1625C11.6 8.76375 11.9263 8.4375 12.325 8.4375H13.4125V7.35ZM18.4875 3C20.2909 3 21.75 4.46088 21.75 6.2625V6.625H25.7375C27.5409 6.625 29 8.08406 29 9.8875V22.9375C29 24.7409 27.5409 26.2 25.7375 26.2H3.26159C1.45861 26.2 0 24.7409 0 22.9375V9.8875C0 8.08406 1.46088 6.625 3.2625 6.625H7.25V6.2625C7.25 4.46088 8.70906 3 10.5125 3H18.4875ZM21.75 8.8V24.025H25.7375C26.3402 24.025 26.825 23.5402 26.825 22.9375V18.225H24.2875C23.6848 18.225 23.2 17.7402 23.2 17.1375C23.2 16.5348 23.6848 16.05 24.2875 16.05H26.825V13.875H24.2875C23.6848 13.875 23.2 13.3902 23.2 12.7875C23.2 12.1848 23.6848 11.7 24.2875 11.7H26.825V9.8875C26.825 9.28484 26.3402 8.8 25.7375 8.8H21.75ZM2.175 9.8875V11.7H4.7125C5.31516 11.7 5.8 12.1848 5.8 12.7875C5.8 13.3902 5.31516 13.875 4.7125 13.875H2.175V16.05H4.7125C5.31516 16.05 5.8 16.5348 5.8 17.1375C5.8 17.7402 5.31516 18.225 4.7125 18.225H2.175V22.9375C2.175 23.5402 2.66166 24.025 3.26159 24.025H7.25V8.8H3.2625C2.66211 8.8 2.175 9.28484 2.175 9.8875ZM9.425 24.025H12.325V21.125C12.325 19.9242 13.2992 18.95 14.5 18.95C15.7008 18.95 16.675 19.9242 16.675 21.125V24.025H19.575V6.2625C19.575 5.66211 19.0902 5.175 18.4875 5.175H10.5125C9.90984 5.175 9.425 5.66211 9.425 6.2625V24.025Z" fill="#1E5C82"/>
</g>
</svg>
