<svg width="45" height="30" viewBox="0 0 45 30" fill="none" xmlns="http://www.w3.org/2000/svg">
<path fill-rule="evenodd" clip-rule="evenodd" d="M10.009 9.95751C9.93233 11.106 10.0485 12.198 10.3171 13.122C10.4482 13.1033 10.5822 13.0937 10.7185 13.0937C12.277 13.0937 13.5404 14.3571 13.5404 15.9156C13.5404 17.4741 12.277 18.7375 10.7185 18.7375C9.16 18.7375 7.89659 17.4741 7.89659 15.9156C7.89659 15.773 7.90716 15.6329 7.92756 15.4961C7.09935 13.818 6.78816 11.7554 6.92191 9.75147C7.06485 7.60988 7.72576 5.378 8.99577 3.57708C10.2853 1.74847 12.2165 0.357965 14.7861 0.0593716C17.1185 -0.211667 19.7884 0.438422 22.7665 2.1509C24.7626 1.13929 27.3624 0.0325429 29.9931 0.118194C31.544 0.168689 33.1079 0.630766 34.5395 1.72874C35.8774 2.75491 37.0185 4.27354 37.9465 6.34244C39.8696 7.02493 41.363 8.37862 42.4705 9.88612C43.6589 11.5038 44.468 13.3826 44.9422 15.0741C45.1728 15.8968 44.6928 16.7506 43.8702 16.9812C43.0475 17.2118 42.1937 16.7319 41.9631 15.9092C41.5671 14.4967 40.9007 12.9751 39.9771 11.7179C39.0529 10.46 37.9363 9.55071 36.6503 9.17354C34.2048 8.45629 30.0498 9.44334 23.9144 17.0289C22.2637 19.0698 20.6725 20.7337 19.1423 22.0522L22.7466 25.8413L31.997 16.7126C31.9227 16.4599 31.8828 16.1924 31.8828 15.9156C31.8828 14.3571 33.1462 13.0937 34.7047 13.0937C36.2632 13.0937 37.5266 14.3571 37.5266 15.9156C37.5266 17.4741 36.2632 18.7375 34.7047 18.7375C34.5914 18.7375 34.4796 18.7308 34.3698 18.7178L23.7983 29.1502C23.5027 29.4419 23.1023 29.6025 22.6872 29.5959C22.272 29.5894 21.8769 29.4162 21.5908 29.1153L16.658 23.9296C13.3508 26.0697 10.3611 26.5325 7.70808 25.6849C5.55119 24.9959 3.88298 23.4989 2.65558 21.8297C1.42624 20.1578 0.573574 18.2276 0.0632641 16.4925C-0.177809 15.6729 0.29122 14.813 1.11087 14.5719C1.93052 14.3309 2.79041 14.7999 3.03148 15.6195C3.4618 17.0826 4.17295 18.6705 5.14821 19.9968C6.12542 21.3258 7.30264 22.3074 8.6496 22.7378C11.1825 23.5469 15.391 22.6471 21.5089 15.0832C26.2933 9.16788 30.5349 6.36633 34.223 5.93564C33.7087 5.14708 33.1776 4.58334 32.6566 4.18375C31.7924 3.52098 30.8695 3.2423 29.8924 3.21049C27.824 3.14315 25.5509 4.1719 23.434 5.28981C22.9467 5.54719 22.3591 5.52582 21.8918 5.2337C18.9709 3.40819 16.7486 2.94607 15.1432 3.13263C13.5769 3.31464 12.3864 4.13757 11.5242 5.36015C10.6425 6.61042 10.1218 8.26747 10.009 9.95751Z" fill="#1E5C82"/>
</svg>
